<?xml version="1.0" standalone="yes"?>
<svg xmlns="http://www.w3.org/2000/svg" width="1470" height="132">
<path fill="white" stroke="white" d="M0 0L0 131C11.8262 126.076 23.266 120.045 35 114.86C59.2319 104.154 84.0473 94.5729 109 85.6921C210.956 49.4057 318.074 28.7652 426 24.0394C447.276 23.1077 468.794 24.0321 490 24.9606C556.473 27.8714 622.109 34.2052 688 44.4244C798.574 61.5736 908.157 88.2515 1020 95.9105C1127.5 103.272 1236.51 95.7455 1342 72.5756C1369.92 66.4437 1397.7 59.4575 1425 50.9745C1440.05 46.2994 1454.83 40.141 1470 36L1470 0L0 0z"/>
</svg>
