<?xml version="1.0" standalone="yes"?>
<svg xmlns="http://www.w3.org/2000/svg" width="1470" height="132">
<path fill="white" stroke="white" d="M1469 1C1450.87 11.583 1430.47 19.413 1411 27.2 1380.71 39.315 1350.15 50.346 1319 60.026 1229.61 87.799 1137.38 103.871 1044 107.961 1022.07 108.921 999.864 107.997 978 107.039 933.82 105.105 889.969 102.186 846 96.715 713.19 80.191 582.696 45.254 449 36.09 341.781 28.74 233.203 36.317 128 59.424 100.083 65.556 72.303 72.543 45 81.026 29.953 85.701 15.171 91.859 0 96L0 132 1470 132 1470 41 1470 15C1470 10.465 1470.77 5.215 1469 1z"/>
</svg>
